<svg width="64" height="64" viewBox="0 0 64 64" fill="none" xmlns="http://www.w3.org/2000/svg">
<path d="M34.6667 53.4667C38.8 51.0667 44.4 46.9333 44.4 42.6667V33.7333C43.7333 33.3333 43.0667 32.9333 42.5333 32.2667C39.8667 35.2 36.2667 36.9333 32 36.9333C27.8667 36.9333 24.2667 35.2 21.6 32.2667C21.0667 32.8 20.4 33.3333 19.7333 33.7333V42.6667C19.7333 46.9333 25.3333 51.0667 29.4667 53.4667L30.1333 43.6L28.9333 39.7333H35.3333L34.1333 43.6L34.6667 53.4667Z" fill="currentColor"/>
<path d="M47.8667 34.5333H47.3333C47.2 34.5333 47.0667 34.5333 47.0667 34.5333V42.6667C47.0667 51.0667 33.2 57.3333 32.5333 57.6L32 57.8667L31.4667 57.6C30.8 57.3333 16.9333 51.0667 16.9333 42.6667V34.5333C16.8 34.5333 16.6667 34.5333 16.6667 34.5333H16.1333C9.2 34.5333 3.73334 39.4667 3.73334 45.6V55.7333C11.6 60.9333 21.4667 64 32 64C42.6667 64 52.4 60.9333 60.4 55.7333V45.6C60.4 39.4667 54.8 34.5333 47.8667 34.5333Z" fill="currentColor"/>
<path d="M19.6 19.8667C19.7333 28.6667 25.2 34.4 31.8667 34.4C38.5333 34.4 44 28.6667 44.1333 19.7333C44.4 19.6 44.5334 19.4667 44.5334 19.2C45.3334 10 44 7.46667 43.6 7.06667C40.4 0.933334 35.0667 0 32.1333 0C30.8 0 29.8667 0.266667 29.8667 0.266667C20 0.933333 19.0667 9.6 19.0667 9.73333V19.2C19.0667 19.4667 19.6 19.8667 19.6 19.8667ZM22.1333 12C24.1333 11.7333 25.3333 9.86667 26 8.66667C27.6 10 30.6667 10.6667 32.1333 10.5333C38.2667 9.86667 40.8 12.4 42.1333 14.6667C41.8667 17.6 40.5333 23.6 35.7333 24.5333C35.2 24.6667 34.5333 24.5333 34.1333 24.1333C32.9333 23.2 31.2 23.2 30 24.1333C29.6 24.5333 28.9333 24.6667 28.4 24.5333C22.6667 23.3333 22 15.3333 21.8667 13.4667L22.1333 12Z" fill="currentColor"/>
</svg>
