<svg width="170" height="246" viewBox="0 0 170 246" fill="none" xmlns="http://www.w3.org/2000/svg" className="w-full h-auto"
>
<path fill-rule="evenodd" clip-rule="evenodd" d="M85.8467 121.194C84.616 124.25 82.128 126.17 80.268 127.521L72.892 132.881V134.156V135.432L80.268 140.793C82.128 142.142 84.616 144.064 85.8467 147.12C87.0773 144.064 89.5653 142.142 91.424 140.793L98.8 135.432V134.156V132.881L91.424 127.521C89.5653 126.17 87.0773 124.25 85.8467 121.194ZM48.1947 204.526L35.4347 213.641C27.568 219.26 19.268 221.92 9.60133 221.92H0V219.364L45.0667 186.62C40.8733 180.201 38.56 172.626 38.56 164.734V138.5L38.572 137.145C38.572 124.904 40.9533 112.802 45.62 101.506C52.7213 84.3184 64.88 69.6171 80.3347 59.3758H82.8907V61.1278C82.892 71.7811 79.6333 80.9398 72.904 89.1998C62.1 102.462 55.868 119.28 55.868 137.145H55.86L55.8573 164.957C55.9347 172.124 59.324 178.833 65.1333 183.054L81.832 195.186L89.592 200.826L89.612 200.84C92.928 203.141 97.1773 203.101 100.461 200.714L102.805 199.012L108.413 203.088L100.56 208.796L85.8467 219.486L54.632 196.805C52.1547 194.953 49.928 192.845 47.9773 190.532L48.1947 204.526ZM87.112 46.9638C90.624 46.9638 93.7333 48.7331 95.6 51.4278H98.5213V39.9878C98.5213 34.3038 93.8853 29.6705 88.2027 29.6705L80.3667 29.6691C77.768 29.6691 75.416 28.6118 73.72 26.9078C74.8253 23.3198 83.7133 14.8638 86.5907 19.7704H89.512L94.012 4.63579C93.9427 -0.0802135 88.4747 -1.75487 83.896 2.25313C79.608 6.00779 75.9067 10.2118 72.8173 14.7384C71.16 17.1811 69.6667 19.6971 68.3453 22.2971C65.5573 27.7718 63.524 33.6184 62.3253 39.9384C67.08 44.3051 73.4187 46.9651 80.3667 46.9638H87.112ZM63.28 173.39L68.888 177.468L71.232 175.765C74.5227 173.372 78.7813 173.337 82.1027 175.653L131.98 211.885C139.901 217.64 148.312 220.372 158.101 220.372H169.561V217.814L85.8467 156.993L63.28 173.39ZM92.2667 59.3758C107.721 69.6171 119.88 84.3198 126.98 101.506C131.685 112.893 134.031 124.974 134.031 137.29L134.032 172.99L131.964 174.49L107.981 157.068L109.949 150.954C115.803 154.333 116.733 150.438 116.733 143.24V137.145C116.733 119.276 110.497 102.457 99.6893 89.1918C92.96 80.9331 89.7 71.7758 89.6987 61.1211V59.3758H92.2667ZM59.94 236.492L72.8933 245.902L85.8467 236.493V236.492L98.8013 245.902L111.755 236.493V235.216V233.94L98.8013 224.528L85.8467 233.94L72.8933 224.529L59.94 233.94V235.214V236.492Z" fill="currentColor"/>
</svg>
