<svg width="170" height="235" viewBox="0 0 170 235" fill="none" xmlns="http://www.w3.org/2000/svg">
<path fill-rule="evenodd" clip-rule="evenodd" d="M85.8467 110.194C84.616 113.25 82.128 115.17 80.268 116.521L72.892 121.881V123.156V124.432L80.268 129.793C82.128 131.142 84.616 133.064 85.8467 136.12C87.0773 133.064 89.5653 131.142 91.424 129.793L98.8 124.432V123.156V121.881L91.424 116.521C89.5653 115.17 87.0773 113.25 85.8467 110.194ZM48.1947 193.526L35.4347 202.641C27.568 208.26 19.268 210.92 9.60133 210.92H0V208.364L45.0667 175.62C40.8733 169.201 38.56 161.626 38.56 153.734V127.5L38.572 126.145C38.572 113.904 40.9533 101.802 45.62 90.5065C52.7213 73.3185 64.88 58.6171 80.3347 48.3758H82.8907V50.1278C82.892 60.7812 79.6333 69.9398 72.904 78.1998C62.1 91.4624 55.868 108.28 55.868 126.145H55.86L55.8573 153.957C55.9347 161.124 59.324 167.833 65.1333 172.054L81.832 184.186L89.592 189.826L89.612 189.84C92.928 192.141 97.1773 192.101 100.461 189.714L102.805 188.012L108.413 192.088L100.56 197.796L85.8467 208.486L54.632 185.805C52.1547 183.953 49.928 181.845 47.9773 179.532L48.1947 193.526ZM87.112 35.9638C90.624 35.9638 93.7333 37.7332 95.6 40.4278H98.5213V28.9878C98.5213 23.3038 93.8853 18.6705 88.2027 18.6705L80.3667 18.6691C77.768 18.6691 75.416 17.6118 73.72 15.9078C74.8253 12.3198 83.7133 3.8638 86.5907 8.77046H89.512L94.012 -6.3642C93.9427 -11.0802 88.4747 -12.7549 83.896 -8.74686C79.608 -4.99219 75.9067 -0.788202 72.8173 3.73846C71.16 6.18113 69.6667 8.69715 68.3453 11.2971C65.5573 16.7718 63.524 22.6185 62.3253 28.9385C67.08 33.3051 73.4187 35.9652 80.3667 35.9638H87.112ZM63.28 162.39L68.888 166.468L71.232 164.765C74.5227 162.372 78.7813 162.337 82.1027 164.653L131.98 200.885C139.901 206.64 148.312 209.372 158.101 209.372H169.561V206.814L85.8467 145.993L63.28 162.39ZM92.2667 48.3758C107.721 58.6171 119.88 73.3198 126.98 90.5065C131.685 101.893 134.031 113.974 134.031 126.29L134.032 161.99L131.964 163.49L107.981 146.068L109.949 139.954C115.803 143.333 116.733 139.438 116.733 132.24V126.145C116.733 108.276 110.497 91.4572 99.6893 78.1918C92.96 69.9332 89.7 60.7758 89.6987 50.1211V48.3758H92.2667ZM59.94 225.492L72.8933 234.902L85.8467 225.493V225.492L98.8013 234.902L111.755 225.493V224.216V222.94L98.8013 213.528L85.8467 222.94L72.8933 213.529L59.94 222.94V224.214V225.492Z" fill="#231F20"/>
</svg>
